PathFileType	4	(X/Y/Z)	 D:\Google Drive\Share to the world\OpenSim\ScaleTool\TRC\Walk_Mkrs3.trc
DataRate	CameraRate	NumFrames	NumMarkers	Units	OrigDataRate	OrigDataStartFrame	OrigNumFrames
100	100	10	34	m	100	461	614
Frame#	time	C7			T10			CLAV			STRN			LSHO			LELB			LWRA			LWRB			LFIN			RSHO			RELB			RWRA			RWRB			RFIN			LASI			RASI			LPSI			RPSI			LTHI			LKNE			LTIB			LANK			LHEE			LTOE			RTHI			RKNE			RTIB			RANK			RHEE			RTOE			RPINKY			LPINKY			INRKNE			INLKNE			
		X1	Y1	Z1	X2	Y2	Z2	X3	Y3	Z3	X4	Y4	Z4	X5	Y5	Z5	X6	Y6	Z6	X7	Y7	Z7	X8	Y8	Z8	X9	Y9	Z9	X10	Y10	Z10	X11	Y11	Z11	X12	Y12	Z12	X13	Y13	Z13	X14	Y14	Z14	X15	Y15	Z15	X16	Y16	Z16	X17	Y17	Z17	X18	Y18	Z18	X19	Y19	Z19	X20	Y20	Z20	X21	Y21	Z21	X22	Y22	Z22	X23	Y23	Z23	X24	Y24	Z24	X25	Y25	Z25	X26	Y26	Z26	X27	Y27	Z27	X28	Y28	Z28	X29	Y29	Z29	X30	Y30	Z30	X31	Y31	Z31	X32	Y32	Z32	X33	Y33	Z33	X34	Y34	Z34	

461	4.6000	-0.300980	1.483070	0.155270	-0.331970	1.235550	0.160200	-0.154490	1.385370	0.160690	-0.120720	1.233420	0.163240	-0.231060	1.443630	-0.023100	-0.279660	1.132530	-0.098600	-0.287950	0.872870	-0.085990	-0.340310	0.894190	-0.122780	-0.334750	0.811220	-0.133370	-0.234600	1.462530	0.326780	-0.105050	1.183340	0.435520	0.110490	1.084450	0.349940	0.097120	1.053690	0.400920	0.164640	1.036890	0.385870	-0.138780	0.967580	0.047030	-0.159380	0.963550	0.312020	-0.303520	1.068060	0.114960	-0.308850	1.067720	0.200760	-0.091700	0.684460	-0.007710	-0.036120	0.503660	0.018440	-0.039890	0.300820	0.004440	-0.008150	0.094120	0.042500	-0.062620	0.100230	0.079650	0.139370	0.082470	0.096200	-0.222820	0.659430	0.316450	-0.228630	0.470000	0.285940	-0.270800	0.295750	0.283730	-0.310270	0.071860	0.228850	-0.360300	0.098080	0.190390	-0.157410	0.035630	0.186920	-0.209770	0.029230	0.258060	0.103800	0.056840	0.023580	-0.230170	0.475520	0.182960	-0.042770	0.491810	0.125740	
462	4.6100	-0.292130	1.481820	0.154240	-0.323000	1.234310	0.159180	-0.145610	1.384210	0.159720	-0.111810	1.232280	0.162670	-0.221980	1.442590	-0.024030	-0.275540	1.132500	-0.099400	-0.287120	0.872930	-0.086790	-0.339650	0.894900	-0.122890	-0.335250	0.811870	-0.133610	-0.225800	1.461630	0.325630	-0.094490	1.183850	0.435020	0.122170	1.089310	0.347680	0.109790	1.058090	0.398530	0.177560	1.042820	0.383120	-0.128900	0.966280	0.047040	-0.150900	0.962610	0.311870	-0.294210	1.066780	0.114070	-0.299980	1.066640	0.199920	-0.086520	0.680690	-0.008370	-0.030400	0.500830	0.018320	-0.023100	0.298580	0.003160	0.020260	0.093460	0.040950	-0.035000	0.096640	0.077640	0.168010	0.089240	0.095910	-0.215910	0.658640	0.316220	-0.223560	0.469130	0.285770	-0.267790	0.295350	0.283670	-0.310000	0.071920	0.228770	-0.359660	0.098510	0.190420	-0.157280	0.035600	0.186900	-0.209770	0.029220	0.258090	0.134470	0.061240	0.023040	-0.224890	0.474670	0.182760	-0.037770	0.488130	0.125430	
463	4.6200	-0.283250	1.480450	0.153160	-0.314020	1.232930	0.158110	-0.136710	1.382910	0.158700	-0.102860	1.231010	0.162030	-0.212880	1.441400	-0.025010	-0.271060	1.132320	-0.100220	-0.285600	0.872870	-0.087620	-0.338310	0.895430	-0.123000	-0.335000	0.812330	-0.133800	-0.216990	1.460550	0.324460	-0.084220	1.184010	0.434470	0.133360	1.093530	0.345420	0.121820	1.061840	0.396130	0.189880	1.048030	0.380360	-0.118980	0.964830	0.047030	-0.142370	0.961610	0.311700	-0.284850	1.065290	0.113120	-0.291070	1.065380	0.198990	-0.081250	0.676840	-0.009090	-0.024580	0.498010	0.017990	-0.007050	0.296770	0.001990	0.046860	0.093690	0.039760	-0.008970	0.094140	0.076050	0.194570	0.096360	0.095820	-0.208860	0.657760	0.315980	-0.218270	0.468180	0.285590	-0.264630	0.294920	0.283600	-0.309710	0.071990	0.228700	-0.358960	0.098960	0.190460	-0.157150	0.035580	0.186910	-0.209750	0.029200	0.258120	0.163000	0.066130	0.022800	-0.219380	0.473760	0.182540	-0.032790	0.484460	0.125000	
464	4.6300	-0.274350	1.478950	0.152010	-0.305030	1.231420	0.157000	-0.127780	1.381480	0.157630	-0.093890	1.229600	0.161340	-0.203760	1.440040	-0.026060	-0.266200	1.131970	-0.101060	-0.283370	0.872640	-0.088450	-0.336290	0.895730	-0.123130	-0.333990	0.812580	-0.133960	-0.208160	1.459300	0.323260	-0.074210	1.183820	0.433840	0.144090	1.097050	0.343140	0.133280	1.064910	0.393740	0.201620	1.052490	0.377590	-0.109040	0.963210	0.046990	-0.133800	0.960520	0.311520	-0.275460	1.063620	0.112110	-0.282140	1.063930	0.197990	-0.075670	0.673050	-0.009860	-0.018580	0.495260	0.017470	0.008110	0.295280	0.000930	0.071380	0.094500	0.038920	0.015180	0.092520	0.074870	0.218850	0.103380	0.095950	-0.201670	0.656790	0.315700	-0.212760	0.467140	0.285380	-0.261320	0.294440	0.283530	-0.309390	0.072070	0.228640	-0.358220	0.099440	0.190510	-0.157010	0.035560	0.186930	-0.209710	0.029170	0.258150	0.189140	0.071080	0.022850	-0.213630	0.472760	0.182290	-0.027600	0.480890	0.124450	
465	4.6400	-0.265420	1.477330	0.150810	-0.296030	1.229790	0.155840	-0.118830	1.379910	0.156530	-0.084900	1.228050	0.160590	-0.194640	1.438520	-0.027180	-0.260940	1.131410	-0.101930	-0.280420	0.872220	-0.089300	-0.333550	0.895770	-0.123320	-0.332210	0.812560	-0.134100	-0.199310	1.457870	0.322040	-0.064450	1.183280	0.433170	0.154370	1.099870	0.340850	0.144240	1.067320	0.391360	0.212810	1.056160	0.374810	-0.099110	0.961430	0.046920	-0.125190	0.959330	0.311310	-0.266060	1.061760	0.111040	-0.273170	1.062320	0.196900	-0.069520	0.669480	-0.010630	-0.012280	0.492590	0.016790	0.022230	0.293970	-0.000010	0.093590	0.095550	0.038360	0.037180	0.091470	0.074030	0.240680	0.109860	0.096310	-0.194340	0.655700	0.315370	-0.206980	0.465990	0.285110	-0.257820	0.293910	0.283430	-0.309030	0.072170	0.228600	-0.357430	0.099940	0.190580	-0.156870	0.035540	0.186950	-0.209660	0.029140	0.258190	0.212720	0.075680	0.023190	-0.207630	0.471680	0.181980	-0.022020	0.477500	0.123810	
466	4.6500	-0.256450	1.475600	0.149560	-0.287020	1.228060	0.154630	-0.109850	1.378210	0.155380	-0.075890	1.226380	0.159790	-0.185520	1.436830	-0.028350	-0.255260	1.130610	-0.102820	-0.276790	0.871570	-0.090130	-0.330100	0.895540	-0.123560	-0.329630	0.812270	-0.134250	-0.190450	1.456270	0.320800	-0.054920	1.182410	0.432440	0.164250	1.101940	0.338550	0.154760	1.069050	0.389000	0.223500	1.059030	0.372030	-0.089240	0.959510	0.046790	-0.116560	0.958030	0.311060	-0.256650	1.059760	0.109920	-0.264160	1.060560	0.195750	-0.062570	0.666250	-0.011350	-0.005610	0.490010	0.016030	0.035210	0.292670	-0.000820	0.113330	0.096510	0.038040	0.056840	0.090710	0.073470	0.259970	0.115360	0.096840	-0.186870	0.654490	0.314960	-0.200930	0.464740	0.284770	-0.254130	0.293310	0.283290	-0.308650	0.072290	0.228570	-0.356580	0.100470	0.190660	-0.156730	0.035520	0.186970	-0.209590	0.029090	0.258230	0.233590	0.079520	0.023750	-0.201390	0.470500	0.181600	-0.015890	0.474350	0.123120	
467	4.6600	-0.247450	1.473770	0.148260	-0.277980	1.226230	0.153370	-0.100850	1.376390	0.154190	-0.066860	1.224580	0.158920	-0.176430	1.434990	-0.029590	-0.249160	1.129580	-0.103730	-0.272460	0.870670	-0.090950	-0.325920	0.895010	-0.123870	-0.326240	0.811680	-0.134430	-0.181570	1.454510	0.319550	-0.045600	1.181230	0.431660	0.173730	1.103260	0.336240	0.164870	1.070100	0.386660	0.233700	1.061060	0.369260	-0.079420	0.957470	0.046580	-0.107900	0.956620	0.310740	-0.247240	1.057650	0.108750	-0.255110	1.058690	0.194540	-0.054680	0.663460	-0.011930	0.001560	0.487540	0.015290	0.047030	0.291270	-0.001450	0.130510	0.097070	0.037880	0.074010	0.089950	0.073120	0.276680	0.119470	0.097510	-0.179260	0.653140	0.314460	-0.194590	0.463350	0.284340	-0.250240	0.292640	0.283100	-0.308230	0.072430	0.228550	-0.355680	0.101050	0.190760	-0.156590	0.035500	0.186970	-0.209510	0.029040	0.258270	0.251670	0.082270	0.024460	-0.194900	0.469230	0.181110	-0.009140	0.471460	0.122440	
468	4.6700	-0.238420	1.471870	0.146910	-0.268930	1.224320	0.152060	-0.091820	1.374480	0.152970	-0.057800	1.222700	0.158000	-0.167350	1.433020	-0.030890	-0.242630	1.128300	-0.104650	-0.267440	0.869520	-0.091730	-0.321020	0.894170	-0.124240	-0.322040	0.810790	-0.134650	-0.172670	1.452610	0.318290	-0.036490	1.179730	0.430830	0.182850	1.103820	0.333920	0.174580	1.070460	0.384350	0.243450	1.062240	0.366510	-0.069680	0.955340	0.046280	-0.099210	0.955070	0.310330	-0.237860	1.055470	0.107540	-0.246010	1.056730	0.193300	-0.045790	0.661150	-0.012320	0.009290	0.485180	0.014630	0.057770	0.289670	-0.001890	0.145100	0.097010	0.037830	0.088640	0.088980	0.072930	0.290870	0.121900	0.098250	-0.171500	0.651650	0.313860	-0.187950	0.461840	0.283820	-0.246140	0.291900	0.282870	-0.307780	0.072630	0.228540	-0.354730	0.101690	0.190880	-0.156450	0.035470	0.186980	-0.209410	0.028960	0.258320	0.266950	0.083630	0.025260	-0.188180	0.467850	0.180500	-0.001720	0.468830	0.121800	
469	4.6800	-0.229350	1.469910	0.145520	-0.259840	1.222350	0.150710	-0.082760	1.372490	0.151700	-0.048710	1.220730	0.157010	-0.158310	1.430930	-0.032250	-0.235660	1.126770	-0.105590	-0.261740	0.868120	-0.092470	-0.315410	0.893020	-0.124660	-0.316990	0.809600	-0.134920	-0.163750	1.450590	0.317010	-0.027560	1.177960	0.429940	0.191630	1.103610	0.331620	0.183920	1.070120	0.382090	0.252750	1.062560	0.363780	-0.060000	0.953160	0.045850	-0.090480	0.953380	0.309830	-0.228500	1.053260	0.106330	-0.236870	1.054720	0.192060	-0.035990	0.659290	-0.012470	0.017620	0.482950	0.014130	0.067550	0.287840	-0.002130	0.157220	0.096190	0.037860	0.100800	0.087690	0.072860	0.302660	0.122450	0.099010	-0.163600	0.650010	0.313140	-0.181010	0.460190	0.283190	-0.241850	0.291100	0.282590	-0.307290	0.072890	0.228560	-0.353720	0.102420	0.191020	-0.156320	0.035450	0.186980	-0.209300	0.028870	0.258370	0.279500	0.083420	0.026080	-0.181220	0.466360	0.179760	0.006340	0.466450	0.121260	
470	4.6900	-0.220260	1.467940	0.144080	-0.250700	1.220340	0.149330	-0.073680	1.370470	0.150380	-0.039590	1.218720	0.155960	-0.149310	1.428760	-0.033680	-0.228250	1.125010	-0.106540	-0.255340	0.866470	-0.093170	-0.309070	0.891570	-0.125120	-0.311090	0.808120	-0.135260	-0.154790	1.448480	0.315710	-0.018840	1.175930	0.428980	0.200080	1.102650	0.329350	0.192860	1.069090	0.379880	0.261630	1.061980	0.361110	-0.050370	0.950990	0.045300	-0.081700	0.951580	0.309230	-0.219170	1.051060	0.105110	-0.227670	1.052690	0.190820	-0.025470	0.657840	-0.012380	0.026550	0.480880	0.013780	0.076540	0.285790	-0.002160	0.167050	0.094600	0.037940	0.110670	0.086060	0.072880	0.312300	0.121020	0.099780	-0.155550	0.648250	0.312320	-0.173770	0.458430	0.282460	-0.237380	0.290260	0.282260	-0.306760	0.073260	0.228600	-0.352650	0.103270	0.191180	-0.156190	0.035420	0.186980	-0.209180	0.028750	0.258430	0.289530	0.081540	0.026920	-0.173990	0.464730	0.178900	0.014940	0.464310	0.120810	
